<svg xmlns="http://www.w3.org/2000/svg" width="35.353" height="35.353" viewBox="0 0 35.353 35.353"><path d="M35.678,18c-4.8,0-5.4.021-7.289.107a12.972,12.972,0,0,0-4.29.821A9.042,9.042,0,0,0,18.928,24.1a12.912,12.912,0,0,0-.821,4.29C18.022,30.273,18,30.876,18,35.676s.021,5.4.107,7.287a12.991,12.991,0,0,0,.821,4.29A9.046,9.046,0,0,0,24.1,52.425a12.983,12.983,0,0,0,4.291.821c1.885.086,2.488.107,7.288.107s5.4-.021,7.287-.107a12.99,12.99,0,0,0,4.292-.821,9.057,9.057,0,0,0,5.169-5.171,13.1,13.1,0,0,0,.821-4.29c.085-1.885.107-2.486.107-7.287s-.022-5.4-.107-7.289a13.1,13.1,0,0,0-.821-4.29,9.044,9.044,0,0,0-5.17-5.17,13.012,13.012,0,0,0-4.294-.821C41.075,18.021,40.475,18,35.672,18Zm-1.586,3.185h1.586c4.72,0,5.279.017,7.143.1A9.786,9.786,0,0,1,46.1,21.9a5.857,5.857,0,0,1,3.354,3.355,9.767,9.767,0,0,1,.609,3.281c.085,1.863.1,2.423.1,7.141s-.018,5.277-.1,7.141a9.776,9.776,0,0,1-.609,3.281A5.862,5.862,0,0,1,46.1,49.447a9.751,9.751,0,0,1-3.282.609c-1.863.085-2.423.1-7.143.1s-5.279-.018-7.143-.1a9.805,9.805,0,0,1-3.282-.609A5.856,5.856,0,0,1,21.9,46.093a9.767,9.767,0,0,1-.609-3.281c-.085-1.863-.1-2.423-.1-7.144s.017-5.277.1-7.141a9.786,9.786,0,0,1,.609-3.282,5.858,5.858,0,0,1,3.356-3.356,9.765,9.765,0,0,1,3.282-.609c1.631-.074,2.263-.1,5.557-.1ZM45.114,24.12a2.121,2.121,0,1,0,2.121,2.12,2.121,2.121,0,0,0-2.121-2.12ZM35.678,26.6a9.077,9.077,0,1,0,9.076,9.078A9.078,9.078,0,0,0,35.678,26.6Zm0,3.185a5.892,5.892,0,1,1-5.892,5.892A5.892,5.892,0,0,1,35.678,29.784Z" transform="translate(-18 -18)" fill="#bfc0c5"/></svg>