<svg preserveAspectRatio="none" xmlns="http://www.w3.org/2000/svg" width="488.998" height="885.003" viewBox="0 0 488.998 885.003"><path d="M-14020,1321h-278V849a9.323,9.323,0,0,1,6.93-9h43.568a19.522,19.522,0,0,0,19.5-19.5,19.522,19.522,0,0,0-19.5-19.5h-242a19.375,19.375,0,0,1-13.788-5.712A19.379,19.379,0,0,1-14509,781.5a19.373,19.373,0,0,1,5.711-13.787A19.376,19.376,0,0,1-14489.5,762h262a19.521,19.521,0,0,0,19.5-19.5,19.521,19.521,0,0,0-19.5-19.5H-14426a18.878,18.878,0,0,1-13.436-5.566A18.879,18.879,0,0,1-14445,704a18.88,18.88,0,0,1,5.564-13.436A18.877,18.877,0,0,1-14426,685h66v-.218h46.216A15.8,15.8,0,0,0-14298,669V436h278v885Z" transform="translate(14509 -436)" fill="#ffc25c"/></svg>