<svg xmlns="http://www.w3.org/2000/svg" xmlns:xlink="http://www.w3.org/1999/xlink" width="424" height="424" viewBox="0 0 424 424"><defs><clipPath id="a"><rect width="424" height="424" transform="translate(38 38)" fill="#fff" stroke="#707070" stroke-width="1"/></clipPath><filter id="b" x="-24" y="-24" width="472" height="472" filterUnits="userSpaceOnUse"><feOffset input="SourceAlpha"/><feGaussianBlur stdDeviation="8" result="c"/><feFlood flood-opacity="0.161"/><feComposite operator="in" in2="c"/><feComposite in="SourceGraphic"/></filter><filter id="d" x="103" y="0" width="228" height="427" filterUnits="userSpaceOnUse"><feOffset dx="10" dy="10" input="SourceAlpha"/><feGaussianBlur result="e"/><feFlood flood-color="#c2554e"/><feComposite operator="in" in2="e"/><feComposite in="SourceGraphic"/></filter><filter id="f" x="-85.5" y="-85.5" width="595" height="595" filterUnits="userSpaceOnUse"><feOffset input="SourceAlpha"/><feGaussianBlur stdDeviation="28.5" result="g"/><feFlood flood-opacity="0.161"/><feComposite operator="in" in2="g"/><feComposite in="SourceGraphic"/></filter></defs><g transform="translate(-38 -38)" clip-path="url(#a)"><circle cx="212" cy="212" r="212" transform="translate(38 38)" fill="#333646"/><g transform="matrix(1, 0, 0, 1, 38, 38)" filter="url(#b)"><path d="M-919-89a213.568,213.568,0,0,1-42.725-4.307,210.936,210.936,0,0,1-39.795-12.353,212.02,212.02,0,0,1-36.011-19.546,213.518,213.518,0,0,1-31.375-25.887,213.517,213.517,0,0,1-25.887-31.375,212.019,212.019,0,0,1-19.546-36.011,210.922,210.922,0,0,1-12.353-39.794A213.559,213.559,0,0,1-1131-301a213.562,213.562,0,0,1,4.307-42.725,210.918,210.918,0,0,1,12.353-39.795,212.021,212.021,0,0,1,19.546-36.011,213.519,213.519,0,0,1,25.887-31.375,213.528,213.528,0,0,1,31.375-25.887,212.029,212.029,0,0,1,36.011-19.546,210.936,210.936,0,0,1,39.795-12.353A213.569,213.569,0,0,1-919-513a213.569,213.569,0,0,1,42.725,4.307A210.937,210.937,0,0,1-836.48-496.34a212.025,212.025,0,0,1,36.011,19.546,213.526,213.526,0,0,1,31.375,25.887,213.526,213.526,0,0,1,25.887,31.375A212.021,212.021,0,0,1-723.66-383.52a210.932,210.932,0,0,1,12.353,39.795A213.564,213.564,0,0,1-707-301a213.561,213.561,0,0,1-4.307,42.725A210.926,210.926,0,0,1-723.66-218.48a212.019,212.019,0,0,1-19.546,36.011,213.523,213.523,0,0,1-25.887,31.375,213.524,213.524,0,0,1-31.375,25.887A212.019,212.019,0,0,1-836.48-105.66a210.936,210.936,0,0,1-39.795,12.353A213.569,213.569,0,0,1-919-89Zm29-175.5c.331,11.447,3.57,21.372,9.625,29.5A56.482,56.482,0,0,0-856-216.5c10.119,4.148,21.726,6.251,34.5,6.251,13.106,0,24.629-2.439,34.25-7.25s17.065-11.371,22.125-19.5a50.759,50.759,0,0,0,7.625-27.25c0-10.452-2.607-19.115-7.75-25.75a52.823,52.823,0,0,0-18.374-15.251,232.284,232.284,0,0,0-27.626-11c-11.281-3.65-19.692-7.1-25-10.25a16.912,16.912,0,0,1-6-5.687,14.406,14.406,0,0,1-2-7.562,18.411,18.411,0,0,1,1.188-6.844,12.973,12.973,0,0,1,3.562-5.031,15.953,15.953,0,0,1,5.5-3.094,22.364,22.364,0,0,1,7-1.031,26.1,26.1,0,0,1,8.188,1.219,19.6,19.6,0,0,1,6.562,3.656,16.948,16.948,0,0,1,4.437,5.781A20.743,20.743,0,0,1-806-337.5h46.25c-.83-16.422-7.222-29.418-19-38.625S-806.257-390-825.5-390c-18.911,0-34.472,4.668-46.25,13.874s-17.75,22.118-17.75,38.375c0,10.949,2.607,19.949,7.75,26.75a51.508,51.508,0,0,0,18.5,15.5A198.3,198.3,0,0,0-835.5-285a173.948,173.948,0,0,1,18.125,6.251,35.447,35.447,0,0,1,10.75,7,14.111,14.111,0,0,1,3.281,4.812A15.685,15.685,0,0,1-802.25-261a16.624,16.624,0,0,1-1.375,6.906,14.076,14.076,0,0,1-4.125,5.219,18.823,18.823,0,0,1-6.5,3.281,30.512,30.512,0,0,1-8.5,1.094,25.912,25.912,0,0,1-8.375-1.281,19.237,19.237,0,0,1-6.625-3.843,18.653,18.653,0,0,1-4.563-6.281A27.621,27.621,0,0,1-844.5-264.5Zm-142.75-19.75h66.5V-212h42.75V-387.5h-42.75v68.75h-66.5V-387.5h-42.75V-212h42.75V-284.25Z" transform="translate(1131 513)" fill="#333646"/></g><g transform="matrix(1, 0, 0, 1, 38, 38)" filter="url(#d)"><text transform="translate(103 313)" fill="#ffc25c" font-size="298" font-family="Poppins-Bold, Poppins" font-weight="700" letter-spacing="0.031em"><tspan x="0" y="0">H</tspan></text></g><g transform="matrix(1, 0, 0, 1, 38, 38)" filter="url(#f)"><path d="M-919-89a213.568,213.568,0,0,1-42.725-4.307,210.936,210.936,0,0,1-39.795-12.353,212.02,212.02,0,0,1-36.011-19.546,213.518,213.518,0,0,1-31.375-25.887,213.517,213.517,0,0,1-25.887-31.375,212.019,212.019,0,0,1-19.546-36.011,210.922,210.922,0,0,1-12.353-39.794A213.559,213.559,0,0,1-1131-301a213.562,213.562,0,0,1,4.307-42.725,210.918,210.918,0,0,1,12.353-39.795,212.021,212.021,0,0,1,19.546-36.011,213.519,213.519,0,0,1,25.887-31.375,213.528,213.528,0,0,1,31.375-25.887,212.029,212.029,0,0,1,36.011-19.546,210.936,210.936,0,0,1,39.795-12.353A213.569,213.569,0,0,1-919-513a213.569,213.569,0,0,1,42.725,4.307A210.937,210.937,0,0,1-836.48-496.34a212.025,212.025,0,0,1,36.011,19.546,213.526,213.526,0,0,1,31.375,25.887,213.526,213.526,0,0,1,25.887,31.375A212.021,212.021,0,0,1-723.66-383.52a210.932,210.932,0,0,1,12.353,39.795A213.564,213.564,0,0,1-707-301a213.561,213.561,0,0,1-4.307,42.725A210.926,210.926,0,0,1-723.66-218.48a212.019,212.019,0,0,1-19.546,36.011,213.523,213.523,0,0,1-25.887,31.375,213.524,213.524,0,0,1-31.375,25.887A212.019,212.019,0,0,1-836.48-105.66a210.936,210.936,0,0,1-39.795,12.353A213.569,213.569,0,0,1-919-89Zm0-381c-93.187,0-169,75.813-169,169s75.813,169,169,169,169-75.813,169-169S-825.813-470-919-470Z" transform="translate(1131 513)" fill="#333646"/></g><path d="M-919-89a212.843,212.843,0,0,1-52.281-6.494,210.857,210.857,0,0,1-47.525-18.419,212.7,212.7,0,0,1-41.172-28.748,213.349,213.349,0,0,1-33.222-37.481A212,212,0,0,0-933-107c116.9,0,212-95.1,212-212a210.724,210.724,0,0,0-37.8-120.859,213.245,213.245,0,0,1,21.708,29.921A211.718,211.718,0,0,1-720.8-376.4,211.165,211.165,0,0,1-707-301a213.559,213.559,0,0,1-4.307,42.725A210.932,210.932,0,0,1-723.66-218.48a212.015,212.015,0,0,1-19.546,36.011,213.519,213.519,0,0,1-25.887,31.375,213.52,213.52,0,0,1-31.375,25.887A212.024,212.024,0,0,1-836.48-105.66a210.939,210.939,0,0,1-39.795,12.353A213.569,213.569,0,0,1-919-89Z" transform="translate(1169 551)" fill="#252734"/></g></svg>