<svg xmlns="http://www.w3.org/2000/svg" width="36.03" height="35.271" viewBox="0 0 36.03 35.271"><g transform="translate(0.018)"><g transform="translate(-0.018 0)"><path d="M18.084,0a18.082,18.082,0,0,0-5.716,35.242c.91.167,1.232-.4,1.232-.877V31.29c-5.05,1.1-6.116-2.431-6.116-2.431a4.84,4.84,0,0,0-2.009-2.653c-1.632-1.11.133-1.11.133-1.11a3.807,3.807,0,0,1,2.764,1.865,3.863,3.863,0,0,0,5.261,1.51,3.841,3.841,0,0,1,1.11-2.42c-4.018-.455-8.236-2.009-8.236-8.88A6.993,6.993,0,0,1,8.36,12.321a6.593,6.593,0,0,1,.178-4.784s1.521-.488,4.973,1.854a17.1,17.1,0,0,1,9.057,0C26.02,7.048,27.53,7.537,27.53,7.537a6.56,6.56,0,0,1,.222,4.751,6.993,6.993,0,0,1,1.854,4.851c0,6.948-4.229,8.469-8.258,8.88a4.273,4.273,0,0,1,1.232,3.33c0,2.42,0,4.373,0,4.962s.322,1.043,1.243.866A18.082,18.082,0,0,0,18.084,0Z" transform="translate(0.018 0)" fill="#bfc0c5" fill-rule="evenodd"/></g></g></svg>