<svg xmlns="http://www.w3.org/2000/svg" width="29.949" height="35.19" viewBox="0 0 29.949 35.19"><path d="M111.96,7.531a.775.775,0,0,0-.692.317.788.788,0,0,0,.029.779l3.432,5.941a.027.027,0,0,1,0,.029l-5.393,9.516a.784.784,0,0,0,0,.779.747.747,0,0,0,.663.346h5.075a1.553,1.553,0,0,0,1.384-.98s5.273-9.327,5.479-9.689c-.02-.033-3.489-6.085-3.489-6.085a1.568,1.568,0,0,0-1.413-.952Z" transform="translate(-109.232 -0.582)" fill="#bfc0c5"/><path d="M329.105,324.335a1.487,1.487,0,0,0-1.358.966s-10.934,19.391-11.294,20.027l7.212,13.23a1.586,1.586,0,0,0,1.417.967h5.07a.751.751,0,0,0,.674-.324.792.792,0,0,0-.01-.784l-7.155-13.073a.028.028,0,0,1,0-.033L334.9,325.442a.8.8,0,0,0,.011-.783.753.753,0,0,0-.675-.324Z" transform="translate(-305.057 -324.335)" fill="#bfc0c5"/></svg>